<svg version="1.1" xmlns="http://www.w3.org/2000/svg" x="0px" y="0px"
	 width="124px" height="128px" viewBox="0 0 1044 1080" enable-background="new 0 0 1044 1080" xml:space="preserve">
  <defs>
    <linearGradient id="grad" x1="0%" y1="0%" x2="100%" y2="0%">
      <stop offset="0%" style="stop-color:#2c5499;stop-opacity:1" />
      <stop offset="100%" style="stop-color:#3e97e6;stop-opacity:1" />
    </linearGradient>
  </defs>

  <path fill="url(#grad)" d="M731.974,143.431c-167.218-167.241-439.323-167.241-606.556,0
    c-167.223,167.216-167.223,439.32,0,606.536c161.497,161.507,420.777,167,588.976,16.589l34.001,34.001
    c-8.467,21.699-4.031,47.208,13.463,64.712l179.429,179.429c23.588,23.6,61.845,23.588,85.418,0c23.6-23.573,23.6-61.82,0-85.418
    L847.289,779.877c-17.504-17.489-43.064-21.927-64.725-13.463l-34.001-34.027C898.987,564.19,893.479,304.923,731.974,143.431z
    M176.682,698.73c-138.964-138.964-138.964-365.072,0-504.035c138.964-138.992,365.077-138.964,504.04,0s138.964,365.084,0,504.048
    S315.646,837.694,176.682,698.73z"/>
  <path fill="url(#grad)" d="M226.436,563.445l-0.437-184.655c-0.022-9.086,9.262-15.229,17.617-11.658l168.099,71.861
    c4.645,1.984,7.663,6.545,7.675,11.596l0.436,184.655c0.02,9.086-9.262,15.229-17.617,11.658l-168.099-71.858
    C229.466,573.058,226.448,568.497,226.436,563.445L226.436,563.445z M456.461,454.664l155.125-67.182L456.461,454.664
    l155.125-67.182 M617.863,365.204c6.668-0.015,12.652,5.349,12.669,12.63l0.436,184.655c0.013,5.051-2.983,9.627-7.621,11.633
    l-167.757,72.655c-1.656,0.717-3.35,1.051-5.002,1.056c-6.668,0.015-12.652-5.347-12.67-12.63l-0.436-184.654
    c-0.013-5.051,2.983-9.624,7.621-11.633l167.757-72.654C614.517,365.544,616.211,365.208,617.863,365.204L617.863,365.204z
    M266.342,333.047l160.915-71.849L266.342,333.047l160.915-71.849 M427.212,241.635c1.746-0.005,3.494,0.355,5.131,1.073
    l176.861,77.967c10.034,4.424,10.066,18.648,0.055,23.117l-176.491,78.802c-1.632,0.729-3.377,1.096-5.126,1.098
    c-1.748,0.005-3.497-0.352-5.131-1.074l-176.861-77.967c-10.034-4.421-10.065-18.646-0.055-23.117l176.491-78.802
    C423.715,242.005,425.463,241.64,427.212,241.635L427.212,241.635z M427.212,241.635"/>
</svg>
